<?xml version="1.0" encoding="utf-8"?>
<!-- Generator: Adobe Illustrator 27.1.1, SVG Export Plug-In . SVG Version: 6.00 Build 0)  -->
<svg version="1.1" id="Calque_1" xmlns="http://www.w3.org/2000/svg" xmlns:xlink="http://www.w3.org/1999/xlink" x="0px" y="0px"
	 viewBox="0 0 179.89 99.02" style="enable-background:new 0 0 179.89 99.02;" xml:space="preserve">
<style type="text/css">
	.st0{fill:#FFA017;}
	.st1{fill:none;stroke:#050505;stroke-width:3.75;stroke-miterlimit:10;}
	.st2{fill:#050505;stroke:#050505;stroke-miterlimit:10;}
	.st3{fill:none;stroke:#050505;stroke-width:4;stroke-miterlimit:10;}
	.st4{fill:#FFFFFF;}
	.st5{fill:none;stroke:#050505;stroke-width:2.9582;stroke-miterlimit:10;}
	.st6{fill:#050505;}
	.st7{fill:none;stroke:#050505;stroke-width:3;stroke-miterlimit:10;}
	.st8{fill:none;stroke:#FFFFFF;stroke-width:3;stroke-miterlimit:10;}
	.st9{fill:none;stroke:#050505;stroke-width:3.8454;stroke-miterlimit:10;}
	.st10{fill:none;stroke:#FFFFFF;stroke-width:3.8454;stroke-miterlimit:10;}
	.st11{fill:none;stroke:#000000;stroke-width:2;stroke-miterlimit:10;}
	.st12{fill:none;stroke:#FFFFFF;stroke-width:2;stroke-miterlimit:10;}
	.st13{fill:#FFA017;stroke:#FFA017;stroke-width:0.25;stroke-miterlimit:10;}
	.st14{fill:url(#SVGID_1_);}
	.st15{fill:url(#SVGID_00000072278431153227410300000008769249548208215958_);}
	.st16{fill:url(#SVGID_00000042012963515688751210000007867848851310802590_);}
	.st17{fill:url(#SVGID_00000010294125708223496010000010551844934736572060_);}
	
		.st18{fill:url(#SVGID_00000137099012185910029250000014597789242552372892_);stroke:url(#SVGID_00000108297771739476368910000008025530443581940383_);stroke-width:2;stroke-miterlimit:10;}
	.st19{fill:url(#SVGID_00000134953328252603004450000015192201956257659035_);}
	.st20{fill:url(#SVGID_00000168105655454158912580000011134810382598294448_);}
	.st21{fill:url(#SVGID_00000095306783865390851670000017832487197353124263_);}
	.st22{fill:url(#SVGID_00000090286608436812550760000008268419817319603585_);}
	.st23{fill:url(#SVGID_00000139264150811023423770000006240769347678694562_);}
	.st24{fill:url(#SVGID_00000055691197267531415010000015670078471626430897_);}
</style>
<linearGradient id="SVGID_1_" gradientUnits="userSpaceOnUse" x1="57.3513" y1="46.0352" x2="63.3702" y2="56.2947">
	<stop  offset="0" style="stop-color:#FAB945"/>
	<stop  offset="1" style="stop-color:#FFA017"/>
</linearGradient>
<path class="st14" d="M52.54,58.98c0,0.62,0.03,1.24,0.09,1.84h3.03c-0.08-0.6-0.12-1.22-0.12-1.84c0-6.94,4.84-12.77,11.32-14.28
	c0.31-1.13,0.71-2.22,1.2-3.26C59.32,42.5,52.54,49.96,52.54,58.98z"/>
<linearGradient id="SVGID_00000168103347380144679350000008928998638008783801_" gradientUnits="userSpaceOnUse" x1="80.4101" y1="33.3127" x2="91.0922" y2="51.5209">
	<stop  offset="0" style="stop-color:#FAB945"/>
	<stop  offset="1" style="stop-color:#FFA017"/>
</linearGradient>
<path style="fill:url(#SVGID_00000168103347380144679350000008928998638008783801_);" d="M102,41.33c-3.05-5.3-8.78-8.88-15.32-8.88
	c-6.56,0-12.29,3.59-15.34,8.9c-0.54,0.94-0.99,1.93-1.35,2.97c0.04-0.01,0.09-0.01,0.13-0.01h0.09c0.99,0,1.95,0.1,2.88,0.29
	c0.39-0.97,0.89-1.89,1.48-2.74c2.63-3.87,7.08-6.41,12.11-6.41c5,0,9.43,2.52,12.07,6.35c0.6,0.86,1.1,1.78,1.5,2.75
	c0.84-0.16,1.71-0.24,2.6-0.24c0.13,0,0.26,0,0.38,0.01h0.14C103.01,43.28,102.55,42.28,102,41.33z"/>
<linearGradient id="SVGID_00000144301858029429300240000000494721244291992461_" gradientUnits="userSpaceOnUse" x1="107.9187" y1="39.9474" x2="120.2312" y2="60.9346">
	<stop  offset="0" style="stop-color:#FAB945"/>
	<stop  offset="1" style="stop-color:#FFA017"/>
</linearGradient>
<path style="fill:url(#SVGID_00000144301858029429300240000000494721244291992461_);" d="M105.31,41.48c0.49,1.05,0.9,2.15,1.2,3.29
	c6.33,1.63,11.01,7.38,11.01,14.21c0,0.62-0.04,1.24-0.12,1.84h3.03c0.06-0.6,0.09-1.22,0.09-1.84
	C120.52,50.07,113.89,42.68,105.31,41.48z"/>
<g>
	<path class="st0" d="M66.41,57.13v-9.01h-4.16v1.56h2.22v7.45h-2.22v1.55h6.29v-1.55H66.41z"/>
	<path class="st0" d="M75.8,55.58v-0.81c0-0.55-0.08-1.05-0.23-1.5s-0.37-0.84-0.66-1.16c-0.29-0.32-0.65-0.57-1.07-0.74
		c-0.42-0.18-0.89-0.27-1.43-0.27c-0.52,0-1,0.1-1.44,0.28c-0.44,0.19-0.82,0.46-1.14,0.79c-0.32,0.34-0.57,0.75-0.75,1.22
		s-0.27,0.99-0.27,1.56v0.27c0,0.5,0.09,0.97,0.27,1.41c0.18,0.44,0.44,0.82,0.78,1.14c0.33,0.32,0.73,0.58,1.2,0.77
		c0.47,0.19,0.99,0.28,1.56,0.28c0.72,0,1.35-0.14,1.87-0.42c0.53-0.28,0.92-0.59,1.16-0.94l-0.96-1.03
		c-0.22,0.29-0.5,0.5-0.86,0.64c-0.35,0.14-0.71,0.22-1.09,0.22c-0.27,0-0.51-0.05-0.74-0.13c-0.22-0.08-0.42-0.2-0.6-0.35
		c-0.16-0.15-0.3-0.31-0.4-0.49c-0.1-0.18-0.18-0.42-0.25-0.72v-0.02H75.8z M70.99,53.6c0.09-0.2,0.21-0.37,0.35-0.51
		c0.13-0.14,0.29-0.25,0.46-0.33c0.18-0.07,0.38-0.11,0.6-0.11c0.24,0,0.45,0.04,0.64,0.11c0.18,0.08,0.34,0.18,0.47,0.31
		c0.13,0.13,0.23,0.29,0.3,0.47c0.08,0.18,0.11,0.37,0.11,0.57v0.15h-3.13C70.83,54.02,70.9,53.8,70.99,53.6z"/>
	<path class="st0" d="M83.02,57.89c-0.05-0.26-0.07-0.59-0.07-0.99v-3.19c0-0.43-0.09-0.81-0.25-1.14c-0.16-0.33-0.38-0.6-0.66-0.81
		c-0.29-0.22-0.62-0.38-1.01-0.49c-0.39-0.11-0.81-0.17-1.26-0.17c-0.5,0-0.94,0.07-1.33,0.19c-0.38,0.13-0.71,0.3-0.98,0.51
		c-0.27,0.22-0.47,0.47-0.61,0.75c-0.14,0.29-0.21,0.59-0.21,0.9h1.91c0-0.13,0.02-0.25,0.06-0.36c0.04-0.11,0.1-0.2,0.18-0.28
		c0.09-0.09,0.21-0.16,0.36-0.21c0.14-0.04,0.32-0.07,0.52-0.07c0.23,0,0.43,0.03,0.6,0.09s0.32,0.14,0.43,0.24
		c0.11,0.1,0.2,0.22,0.25,0.36c0.06,0.14,0.08,0.3,0.08,0.48v0.43h-1.06c-0.55,0-1.04,0.05-1.46,0.15c-0.43,0.1-0.79,0.24-1.07,0.43
		c-0.33,0.21-0.57,0.47-0.73,0.79c-0.16,0.32-0.24,0.68-0.24,1.1c0,0.32,0.07,0.62,0.2,0.89c0.12,0.27,0.3,0.51,0.53,0.7
		c0.23,0.2,0.51,0.35,0.82,0.46c0.32,0.11,0.67,0.17,1.05,0.17c0.24,0,0.45-0.02,0.66-0.07c0.2-0.04,0.38-0.1,0.55-0.18
		c0.17-0.07,0.32-0.16,0.46-0.26c0.14-0.1,0.26-0.21,0.36-0.32c0.02,0.13,0.05,0.26,0.08,0.38c0.04,0.11,0.08,0.22,0.12,0.31h1.94
		v-0.12C83.14,58.38,83.07,58.15,83.02,57.89z M81.03,56.56c-0.05,0.09-0.13,0.19-0.22,0.28c-0.1,0.1-0.21,0.18-0.35,0.25
		c-0.13,0.08-0.28,0.14-0.44,0.18c-0.17,0.05-0.35,0.07-0.54,0.07c-0.18,0-0.34-0.02-0.47-0.06c-0.14-0.05-0.25-0.11-0.34-0.18
		c-0.09-0.08-0.16-0.17-0.21-0.29c-0.05-0.11-0.08-0.23-0.08-0.36c0-0.17,0.04-0.33,0.1-0.48c0.07-0.14,0.16-0.26,0.3-0.37
		c0.13-0.1,0.3-0.18,0.51-0.24c0.21-0.05,0.47-0.08,0.77-0.08h0.97V56.56z"/>
</g>
<g>
	<path class="st0" d="M100.53,50.23v-1.56h-5.79v1.56h1.9v6.9h-1.9v1.55h5.79v-1.55h-1.96v-6.9H100.53z"/>
	<path class="st0" d="M107.1,53.63l2.82-4.96h-2.27l-1.78,3.59l-1.75-3.59h-2.26l2.82,4.96l-2.89,5.05h2.28l1.83-3.64l1.84,3.64
		h2.25L107.1,53.63z"/>
</g>
<polygon class="st0" points="92.77,58.68 89.62,54.41 89.62,57.51 90.42,58.68 "/>
<polygon class="st0" points="92.38,51.24 89.62,54.29 89.62,51.75 90.05,51.24 "/>
<rect x="85.53" y="48.12" class="st0" width="1.83" height="10.57"/>
<polygon class="st0" points="89.57,54.34 89.62,54.29 89.62,52.03 89.62,51.75 88.02,53.5 87.45,54.16 87.45,48.12 87.36,48.12 
	87.36,58.68 87.45,58.68 87.45,56.41 88.31,55.61 89.62,57.51 89.62,54.41 "/>
</svg>
